<svg xmlns="http://www.w3.org/2000/svg" xmlns:xlink="http://www.w3.org/1999/xlink" version="1.1" id="Layer_1" x="0px" y="0px" enable-background="new 0 0 1024 1024" xml:space="preserve" viewBox="359.1 387.68 314.79 174.61">
<defs>
    <linearGradient id="kk_gradient" x1="0%" y1="0%" x2="100%" y2="0%">
      <stop offset="0%" style="stop-color:#342E82;stop-opacity:1"/>
      <stop offset="100%" style="stop-color:#21B9E6;stop-opacity:1"/>
    </linearGradient>
</defs>

<path fill="url(#kk_gradient)" opacity="1.000000" stroke="none" d="M558.837036,562.214966 C548.528503,562.207397 538.692810,561.996887 528.871582,562.283203 C524.186401,562.419800 522.378479,561.111023 522.539978,556.140381 C522.886169,545.488831 522.532593,534.816406 522.717468,524.156799 C522.781067,520.488342 521.585999,519.076782 517.851196,519.200317 C511.193939,519.420532 504.523926,519.225098 497.861053,519.324097 C495.553772,519.358337 493.635712,518.877869 492.096375,517.039612 C483.756500,507.080139 475.379700,497.151611 467.041931,487.190399 C466.762360,486.856384 466.764343,486.286743 466.645447,485.863647 C467.539734,484.258850 469.028320,484.758301 470.257172,484.735992 C474.420959,484.660583 478.623291,485.057098 482.744720,484.631714 C492.240265,483.651642 500.430328,485.054291 505.982971,494.041138 C507.772369,496.937286 517.242371,498.058044 520.409363,496.559845 C522.449463,495.594727 522.388489,493.674438 522.564087,491.866730 C522.878418,488.630615 522.165283,485.301941 523.180786,482.047821 C532.210144,485.667786 535.872986,485.356079 539.513428,480.784515 C542.363342,477.205658 542.514709,472.391418 539.557434,468.789520 C534.600647,462.752136 529.001221,463.651550 523.408752,468.330048 C521.297668,464.763367 522.111084,461.600891 522.495972,458.561035 C522.965759,454.850861 521.985291,453.255798 517.830200,452.962433 C511.341370,452.504333 506.011810,453.771332 502.302002,459.487823 C499.049164,464.500122 494.400696,465.774963 488.583710,465.398499 C481.360046,464.931061 474.083130,465.286499 467.135712,465.286499 C466.224152,462.862854 467.492828,462.026764 468.311310,461.064667 C475.974396,452.056488 483.737610,443.132080 491.297150,434.038239 C493.430817,431.471527 495.776550,430.491028 499.057770,430.594666 C505.382446,430.794434 511.721466,430.524719 518.047485,430.701752 C521.569763,430.800323 522.737915,429.322571 522.705688,425.956177 C522.601990,415.127838 522.804199,404.295502 522.610840,393.469635 C522.538879,389.438751 523.825378,387.755127 528.009155,387.817352 C538.669250,387.975952 549.336243,387.964294 559.995117,387.752380 C564.136841,387.670074 565.539062,389.189301 565.422363,393.291687 C564.773438,416.103363 566.504578,438.913055 565.606140,461.730408 C565.589172,462.161102 565.909241,462.605042 566.080750,463.066315 C568.031311,463.134827 568.648499,461.555542 569.501343,460.460083 C587.101196,437.853302 604.719727,415.260498 622.175842,392.542969 C624.752930,389.189148 627.489624,387.635956 631.808899,387.722443 C643.966003,387.965820 656.131592,387.766418 668.293701,387.793304 C669.900452,387.796844 671.634094,387.328491 673.134338,388.576019 C673.850525,390.979553 671.808411,392.191223 670.689880,393.651794 C651.556458,418.636566 632.480469,443.667725 613.051819,468.421753 C609.506653,472.938660 609.482727,475.759399 613.023499,480.283630 C632.322937,504.943939 651.281677,529.871277 670.282715,554.763977 C671.727966,556.657349 673.833130,558.320496 673.887268,561.094116 C672.320435,562.626892 670.394958,562.186279 668.646912,562.191467 C656.151611,562.228760 643.654236,562.061890 631.161987,562.254150 C627.370667,562.312500 625.020996,560.827637 622.813843,557.949707 C605.179077,534.955383 587.438843,512.041870 569.716919,489.114532 C568.814209,487.946686 567.782043,486.878906 566.575378,485.495331 C565.134399,487.415039 565.963623,489.257782 565.959900,490.900146 C565.910889,512.391418 565.947876,533.882935 565.957947,555.374390 C565.960999,561.950256 565.818542,562.089355 558.837036,562.214966 M556.665955,533.643677 C556.630798,531.159546 555.723389,528.724487 553.791382,527.512573 C549.719788,524.958374 549.242615,521.370789 549.632812,517.187500 C549.786804,515.536987 549.679565,513.854919 549.602661,512.191345 C549.361938,506.985077 547.844727,505.430939 542.536560,505.387207 C533.538269,505.313049 524.490967,504.817047 515.553711,505.565552 C507.198914,506.265259 501.073212,503.846161 496.559875,496.812866 C493.879639,492.636261 490.000977,492.503876 485.280518,494.239960 C488.200653,499.186859 492.172150,502.810242 495.244385,507.096558 C497.313110,509.982727 499.811096,510.968903 503.310394,510.912323 C514.973083,510.723694 526.640198,510.798492 538.305603,510.805573 C540.810791,510.807068 543.846375,510.574768 543.737183,514.235962 C543.599121,518.864197 544.630554,523.779602 539.664001,527.260864 C536.304077,529.615967 535.383179,533.485046 536.923401,537.591064 C538.644531,542.179321 542.821838,544.986328 547.370605,544.587646 C552.230774,544.161621 555.606018,540.469910 556.665955,533.643677 M497.466370,452.001862 C501.496582,445.755005 507.177460,443.939636 514.498474,444.453857 C523.274780,445.070343 532.125366,444.653595 540.943726,444.638855 C548.847656,444.625671 549.011963,444.439850 549.035828,436.504608 C549.052063,431.096405 548.484985,426.000977 554.065002,421.928406 C558.446716,418.730377 557.415955,412.116455 553.305847,408.235382 C549.171448,404.331360 543.377808,404.367523 539.439026,408.321930 C535.253052,412.524475 534.777649,418.692749 539.303955,422.473145 C542.897095,425.474060 543.206482,428.772614 543.454590,432.879211 C543.772766,438.144928 541.699097,439.389587 536.822327,439.235352 C525.351379,438.872620 513.864990,439.006989 502.385010,438.916870 C500.902618,438.905243 499.283142,438.422668 498.153198,439.737610 C493.657593,444.969177 489.223267,450.253387 484.454010,455.886993 C490.059845,457.763977 493.946869,456.622467 497.466370,452.001862"/>

<path fill="url(#kk_gradient)" opacity="1.000000" stroke="none" d="M402.216644,510.000000 C402.226654,525.828125 402.120941,541.157837 402.321625,556.483459 C402.377869,560.779968 401.058197,562.399841 396.613892,562.291870 C385.790344,562.028931 374.956512,562.167542 364.126923,562.192566 C361.348694,562.198975 359.367798,561.894775 359.368988,558.196472 C359.377686,531.380066 358.899567,504.559998 359.202301,477.748199 C359.523865,449.272095 359.614807,420.799774 359.379425,392.325714 C359.349670,388.726135 360.812134,387.743927 364.139618,387.781281 C374.801270,387.901062 385.469055,387.981323 396.126434,387.732330 C400.746368,387.624420 402.224091,389.366333 402.196075,393.864746 C402.058960,415.856293 402.153168,437.849274 402.176025,459.841766 C402.177216,460.990265 402.274261,462.138672 402.388397,464.639496 C407.132202,458.641632 411.218475,453.553619 415.220978,448.400513 C429.833313,429.587372 444.470703,410.793152 458.957031,391.883331 C461.200073,388.955322 463.577881,387.635864 467.322754,387.685059 C481.448792,387.870819 495.578705,387.759674 509.579803,387.759674 C510.778534,390.705414 508.647034,391.876831 507.545197,393.313995 C487.686096,419.217896 467.833038,445.127228 447.784698,470.884338 C445.285858,474.094818 446.266144,476.051819 448.282654,478.659668 C467.337799,503.302429 486.337830,527.987854 505.312866,552.692322 C507.311340,555.294312 509.796417,557.611816 510.800964,560.852295 C509.592346,562.766357 507.753845,562.168213 506.204559,562.175049 C493.209198,562.232178 480.211456,562.082886 467.219177,562.291321 C463.412750,562.352417 461.109192,560.827332 458.910675,557.949097 C441.621124,535.313721 424.219543,512.763855 406.836334,490.200134 C405.740540,488.777771 404.882538,487.089050 402.216888,485.969086 C402.216888,494.065033 402.216888,501.782501 402.216644,510.000000"/>

<path fill="url(#kk_gradient)" opacity="1.000000" stroke="none" d="M478.001617,470.967896 C490.996857,470.996887 503.492615,471.018066 515.988281,471.058838 C518.718750,471.067749 521.345764,470.911041 521.361450,475.039978 C521.376892,479.099854 518.908875,479.105103 516.084900,479.107910 C499.257263,479.124542 482.429626,479.164734 465.601990,479.181519 C464.606293,479.182526 463.591766,479.146271 462.618439,478.958801 C460.185242,478.490021 457.839661,477.466949 457.962433,474.644318 C458.086975,471.780670 460.475006,470.935516 463.007385,470.914856 C467.838470,470.875458 472.670471,470.943634 478.001617,470.967896"/>

<path fill="#FFFFFF" opacity="1.000000" stroke="none" d="M531.873413,480.109772 C527.777344,479.902832 526.115601,477.662537 526.276184,474.232056 C526.407837,471.420227 528.237488,469.693665 531.073059,469.435791 C534.130676,469.157745 536.327332,470.644379 536.924988,473.614166 C537.646606,477.200104 535.498840,479.125641 531.873413,480.109772"/>
<path fill="#FFFFFF" opacity="1.000000" stroke="none" d="M551.315552,531.812378 C552.760498,536.152100 551.220398,538.734619 547.276367,539.574402 C544.263855,540.215759 542.025085,538.711365 541.239746,535.715454 C540.360596,532.362000 542.237610,530.288513 545.143372,529.167236 C547.688293,528.185120 549.639893,529.380859 551.315552,531.812378"/>
<path fill="#FFFFFF" opacity="1.000000" stroke="none" d="M546.121094,409.970581 C550.295715,410.397461 552.135132,412.706512 551.798523,416.334106 C551.545593,419.059845 549.615540,420.796478 546.817505,420.974701 C544.016174,421.153107 541.970947,419.643463 541.256531,417.003235 C540.234863,413.226776 542.346497,411.133331 546.121094,409.970581"/>
</svg>